<svg xmlns="http://www.w3.org/2000/svg" xmlns:xlink="http://www.w3.org/1999/xlink" style="margin:auto;background:#dddddd;display:block;z-index:1;position:relative" width="1084" height="322" preserveAspectRatio="xMidYMid" viewBox="0 0 1084 322">
<defs>
  <pattern id="pid-0.80095155333606" x="0" y="0" width="192" height="192" patternUnits="userSpaceOnUse">
    <g transform="scale(0.75)"><defs>
  <filter id="pat-0.23403223246768423" x="-100%" y="-100%" width="300%" height="300%" color-interpolation-filters="sRGB">
    <feGaussianBlur in="SourceGraphic" stdDeviation="10"></feGaussianBlur>
    <feComponentTransfer result="cutoff">
      <feFuncA type="linear" slope="60" intercept="-40"></feFuncA>
    </feComponentTransfer>
  </filter>
</defs><g style="isolation:isolate" filter="url(#pat-0.23403223246768423)"><g transform="translate(0 -23.804)">
  <circle cx="-223.28613777999146" cy="113.36259198370959" r="9.494806156820166" fill="#0a3354"></circle> <circle cx="32.71386222000854" cy="113.36259198370959" r="9.494806156820166" fill="#0a3354"></circle> <circle cx="288.71386222000854" cy="113.36259198370959" r="9.494806156820166" fill="#0a3354"></circle> <circle cx="-223.28613777999146" cy="369.3625919837096" r="9.494806156820166" fill="#0a3354"></circle> <circle cx="32.71386222000854" cy="369.3625919837096" r="9.494806156820166" fill="#0a3354"></circle> <circle cx="288.71386222000854" cy="369.3625919837096" r="9.494806156820166" fill="#0a3354"></circle> <circle cx="-223.28613777999146" cy="625.3625919837095" r="9.494806156820166" fill="#0a3354"></circle> <circle cx="32.71386222000854" cy="625.3625919837095" r="9.494806156820166" fill="#0a3354"></circle> <circle cx="288.71386222000854" cy="625.3625919837095" r="9.494806156820166" fill="#0a3354"></circle> <circle cx="-152.809980142445" cy="22.490981175723846" r="25.83314403750957" fill="#0a3354"></circle> <circle cx="103.190019857555" cy="22.490981175723846" r="25.83314403750957" fill="#0a3354"></circle> <circle cx="359.190019857555" cy="22.490981175723846" r="25.83314403750957" fill="#0a3354"></circle> <circle cx="-152.809980142445" cy="278.49098117572385" r="25.83314403750957" fill="#0a3354"></circle> <circle cx="103.190019857555" cy="278.49098117572385" r="25.83314403750957" fill="#0a3354"></circle> <circle cx="359.190019857555" cy="278.49098117572385" r="25.83314403750957" fill="#0a3354"></circle> <circle cx="-152.809980142445" cy="534.4909811757238" r="25.83314403750957" fill="#0a3354"></circle> <circle cx="103.190019857555" cy="534.4909811757238" r="25.83314403750957" fill="#0a3354"></circle> <circle cx="359.190019857555" cy="534.4909811757238" r="25.83314403750957" fill="#0a3354"></circle> <circle cx="-233.4830346720551" cy="-11.443877014781833" r="26.725334161514784" fill="#0a3354"></circle> <circle cx="22.516965327944888" cy="-11.443877014781833" r="26.725334161514784" fill="#0a3354"></circle> <circle cx="278.5169653279449" cy="-11.443877014781833" r="26.725334161514784" fill="#0a3354"></circle> <circle cx="-233.4830346720551" cy="244.55612298521817" r="26.725334161514784" fill="#0a3354"></circle> <circle cx="22.516965327944888" cy="244.55612298521817" r="26.725334161514784" fill="#0a3354"></circle> <circle cx="278.5169653279449" cy="244.55612298521817" r="26.725334161514784" fill="#0a3354"></circle> <circle cx="-233.4830346720551" cy="500.55612298521817" r="26.725334161514784" fill="#0a3354"></circle> <circle cx="22.516965327944888" cy="500.55612298521817" r="26.725334161514784" fill="#0a3354"></circle> <circle cx="278.5169653279449" cy="500.55612298521817" r="26.725334161514784" fill="#0a3354"></circle> <circle cx="-233.4830346720551" cy="756.5561229852182" r="26.725334161514784" fill="#0a3354"></circle> <circle cx="22.516965327944888" cy="756.5561229852182" r="26.725334161514784" fill="#0a3354"></circle> <circle cx="278.5169653279449" cy="756.5561229852182" r="26.725334161514784" fill="#0a3354"></circle> <circle cx="-186.67940026008955" cy="51.97994797743837" r="8.8750834407119" fill="#0a3354"></circle> <circle cx="69.32059973991045" cy="51.97994797743837" r="8.8750834407119" fill="#0a3354"></circle> <circle cx="325.32059973991045" cy="51.97994797743837" r="8.8750834407119" fill="#0a3354"></circle> <circle cx="-186.67940026008955" cy="307.97994797743837" r="8.8750834407119" fill="#0a3354"></circle> <circle cx="69.32059973991045" cy="307.97994797743837" r="8.8750834407119" fill="#0a3354"></circle> <circle cx="325.32059973991045" cy="307.97994797743837" r="8.8750834407119" fill="#0a3354"></circle> <circle cx="-186.67940026008955" cy="563.9799479774383" r="8.8750834407119" fill="#0a3354"></circle> <circle cx="69.32059973991045" cy="563.9799479774383" r="8.8750834407119" fill="#0a3354"></circle> <circle cx="325.32059973991045" cy="563.9799479774383" r="8.8750834407119" fill="#0a3354"></circle> 
  <animateTransform attributeName="transform" type="translate" dur="16.666666666666664s" repeatCount="indefinite" keyTimes="0;1" values="0 0;0 -256"></animateTransform>
</g><g transform="translate(0 -47.6081)">
  <circle cx="-206.36348505846576" cy="158.3348004063024" r="14.73411132984529" fill="#ffffff"></circle> <circle cx="49.636514941534244" cy="158.3348004063024" r="14.73411132984529" fill="#ffffff"></circle> <circle cx="305.63651494153424" cy="158.3348004063024" r="14.73411132984529" fill="#ffffff"></circle> <circle cx="-206.36348505846576" cy="414.3348004063024" r="14.73411132984529" fill="#ffffff"></circle> <circle cx="49.636514941534244" cy="414.3348004063024" r="14.73411132984529" fill="#ffffff"></circle> <circle cx="305.63651494153424" cy="414.3348004063024" r="14.73411132984529" fill="#ffffff"></circle> <circle cx="-206.36348505846576" cy="670.3348004063024" r="14.73411132984529" fill="#ffffff"></circle> <circle cx="49.636514941534244" cy="670.3348004063024" r="14.73411132984529" fill="#ffffff"></circle> <circle cx="305.63651494153424" cy="670.3348004063024" r="14.73411132984529" fill="#ffffff"></circle> <circle cx="-127.63537906923659" cy="43.57487362445778" r="18.132707426417788" fill="#ffffff"></circle> <circle cx="128.3646209307634" cy="43.57487362445778" r="18.132707426417788" fill="#ffffff"></circle> <circle cx="384.3646209307634" cy="43.57487362445778" r="18.132707426417788" fill="#ffffff"></circle> <circle cx="-127.63537906923659" cy="299.5748736244578" r="18.132707426417788" fill="#ffffff"></circle> <circle cx="128.3646209307634" cy="299.5748736244578" r="18.132707426417788" fill="#ffffff"></circle> <circle cx="384.3646209307634" cy="299.5748736244578" r="18.132707426417788" fill="#ffffff"></circle> <circle cx="-127.63537906923659" cy="555.5748736244577" r="18.132707426417788" fill="#ffffff"></circle> <circle cx="128.3646209307634" cy="555.5748736244577" r="18.132707426417788" fill="#ffffff"></circle> <circle cx="384.3646209307634" cy="555.5748736244577" r="18.132707426417788" fill="#ffffff"></circle> <circle cx="-127.10902050283829" cy="197.27696757966038" r="22.62948494729644" fill="#ffffff"></circle> <circle cx="128.8909794971617" cy="197.27696757966038" r="22.62948494729644" fill="#ffffff"></circle> <circle cx="384.8909794971617" cy="197.27696757966038" r="22.62948494729644" fill="#ffffff"></circle> <circle cx="-127.10902050283829" cy="453.2769675796604" r="22.62948494729644" fill="#ffffff"></circle> <circle cx="128.8909794971617" cy="453.2769675796604" r="22.62948494729644" fill="#ffffff"></circle> <circle cx="384.8909794971617" cy="453.2769675796604" r="22.62948494729644" fill="#ffffff"></circle> <circle cx="-127.10902050283829" cy="709.2769675796603" r="22.62948494729644" fill="#ffffff"></circle> <circle cx="128.8909794971617" cy="709.2769675796603" r="22.62948494729644" fill="#ffffff"></circle> <circle cx="384.8909794971617" cy="709.2769675796603" r="22.62948494729644" fill="#ffffff"></circle> <circle cx="-96.32081142319862" cy="156.12890736810573" r="16.219457936344917" fill="#ffffff"></circle> <circle cx="159.67918857680138" cy="156.12890736810573" r="16.219457936344917" fill="#ffffff"></circle> <circle cx="415.6791885768014" cy="156.12890736810573" r="16.219457936344917" fill="#ffffff"></circle> <circle cx="-96.32081142319862" cy="412.12890736810573" r="16.219457936344917" fill="#ffffff"></circle> <circle cx="159.67918857680138" cy="412.12890736810573" r="16.219457936344917" fill="#ffffff"></circle> <circle cx="415.6791885768014" cy="412.12890736810573" r="16.219457936344917" fill="#ffffff"></circle> <circle cx="-96.32081142319862" cy="668.1289073681057" r="16.219457936344917" fill="#ffffff"></circle> <circle cx="159.67918857680138" cy="668.1289073681057" r="16.219457936344917" fill="#ffffff"></circle> <circle cx="415.6791885768014" cy="668.1289073681057" r="16.219457936344917" fill="#ffffff"></circle> 
  <animateTransform attributeName="transform" type="translate" dur="8.333333333333332s" repeatCount="indefinite" keyTimes="0;1" values="0 0;0 -256"></animateTransform>
</g><g transform="translate(0 -71.4122)">
  <circle cx="-180.42463661789458" cy="-3.0183139517123436" r="8.786848577665074" fill="#0a3354"></circle> <circle cx="75.57536338210542" cy="-3.0183139517123436" r="8.786848577665074" fill="#0a3354"></circle> <circle cx="331.5753633821054" cy="-3.0183139517123436" r="8.786848577665074" fill="#0a3354"></circle> <circle cx="-180.42463661789458" cy="252.98168604828766" r="8.786848577665074" fill="#0a3354"></circle> <circle cx="75.57536338210542" cy="252.98168604828766" r="8.786848577665074" fill="#0a3354"></circle> <circle cx="331.5753633821054" cy="252.98168604828766" r="8.786848577665074" fill="#0a3354"></circle> <circle cx="-180.42463661789458" cy="508.98168604828766" r="8.786848577665074" fill="#0a3354"></circle> <circle cx="75.57536338210542" cy="508.98168604828766" r="8.786848577665074" fill="#0a3354"></circle> <circle cx="331.5753633821054" cy="508.98168604828766" r="8.786848577665074" fill="#0a3354"></circle> <circle cx="-180.42463661789458" cy="764.9816860482877" r="8.786848577665074" fill="#0a3354"></circle> <circle cx="75.57536338210542" cy="764.9816860482877" r="8.786848577665074" fill="#0a3354"></circle> <circle cx="331.5753633821054" cy="764.9816860482877" r="8.786848577665074" fill="#0a3354"></circle> <circle cx="-148.48516099443867" cy="22.29318276131977" r="26.87450689677652" fill="#0a3354"></circle> <circle cx="107.51483900556133" cy="22.29318276131977" r="26.87450689677652" fill="#0a3354"></circle> <circle cx="363.5148390055613" cy="22.29318276131977" r="26.87450689677652" fill="#0a3354"></circle> <circle cx="-148.48516099443867" cy="278.29318276131977" r="26.87450689677652" fill="#0a3354"></circle> <circle cx="107.51483900556133" cy="278.29318276131977" r="26.87450689677652" fill="#0a3354"></circle> <circle cx="363.5148390055613" cy="278.29318276131977" r="26.87450689677652" fill="#0a3354"></circle> <circle cx="-148.48516099443867" cy="534.2931827613197" r="26.87450689677652" fill="#0a3354"></circle> <circle cx="107.51483900556133" cy="534.2931827613197" r="26.87450689677652" fill="#0a3354"></circle> <circle cx="363.5148390055613" cy="534.2931827613197" r="26.87450689677652" fill="#0a3354"></circle> <circle cx="-57.11188637225132" cy="181.00328890378495" r="20.320088238304525" fill="#0a3354"></circle> <circle cx="198.88811362774868" cy="181.00328890378495" r="20.320088238304525" fill="#0a3354"></circle> <circle cx="454.8881136277487" cy="181.00328890378495" r="20.320088238304525" fill="#0a3354"></circle> <circle cx="-57.11188637225132" cy="437.00328890378495" r="20.320088238304525" fill="#0a3354"></circle> <circle cx="198.88811362774868" cy="437.00328890378495" r="20.320088238304525" fill="#0a3354"></circle> <circle cx="454.8881136277487" cy="437.00328890378495" r="20.320088238304525" fill="#0a3354"></circle> <circle cx="-57.11188637225132" cy="693.003288903785" r="20.320088238304525" fill="#0a3354"></circle> <circle cx="198.88811362774868" cy="693.003288903785" r="20.320088238304525" fill="#0a3354"></circle> <circle cx="454.8881136277487" cy="693.003288903785" r="20.320088238304525" fill="#0a3354"></circle> 
  <animateTransform attributeName="transform" type="translate" dur="5.5555555555555545s" repeatCount="indefinite" keyTimes="0;1" values="0 0;0 -256"></animateTransform>
</g></g></g>
  </pattern>
</defs>
<rect x="0" y="0" width="1084" height="322" fill="url(#pid-0.80095155333606)"></rect>
</svg>